<svg width="101" height="100" viewBox="0 0 101 100" fill="none" xmlns="http://www.w3.org/2000/svg">
<path d="M37.1139 44.9947V39.9656C37.1139 39.4591 36.8187 39.0269 36.3963 38.8349C36.6207 36.4548 37.5483 34.2628 39.0723 32.5737C41.3439 30.0548 42.5955 26.7706 42.5955 23.3266C42.5955 19.5941 41.0835 15.9879 38.4483 13.4319C35.7747 10.84 32.2767 9.54586 28.6035 9.77744C21.9591 10.2034 16.5519 15.9186 16.2951 22.7916C16.1583 26.456 17.4171 29.9433 19.8399 32.6108C21.3447 34.269 22.2627 36.4473 22.4835 38.8349C22.0611 39.0269 21.7647 39.4591 21.7647 39.9656V44.9947C21.7647 46.456 22.9155 47.6436 24.3315 47.6436H34.5483C35.9631 47.6436 37.1139 46.456 37.1139 44.9947ZM18.6915 22.887C18.9027 17.2697 23.3199 12.5972 28.7499 12.2493C31.7655 12.0623 34.6191 13.1186 36.8031 15.2375C38.9895 17.3588 40.1943 20.2307 40.1943 23.3266C40.1943 26.1415 39.1707 28.8263 37.3143 30.8857C35.4027 33.0071 34.2471 35.7563 33.9939 38.7272H24.8847C24.6351 35.7452 23.4879 33.0071 21.5895 30.9167C19.6095 28.7371 18.5799 25.8839 18.6915 22.887ZM24.1647 44.9947V41.204H34.7139V44.9947C34.7139 45.0888 34.6395 45.1668 34.5471 45.1668H24.3303C24.2391 45.1668 24.1647 45.0888 24.1647 44.9947Z" fill="black"/>
<path d="M63.91 28.8337C61.36 28.8337 58.828 29.1346 56.3596 29.6968C56.8192 22.1835 54.2632 14.5253 48.6544 8.69254C38.2456 -2.1322 21.1599 -2.28576 10.5663 8.34455C5.43032 13.4987 2.56472 20.3891 2.50112 27.7464C2.43632 35.0999 5.17952 42.0398 10.2243 47.2856C15.5451 52.8187 22.7007 55.7005 30.0195 55.5246C28.7007 61.537 29.4687 67.5753 29.4999 67.8069C29.8851 71.6682 31.3299 76.6825 33.1851 80.6106C34.8099 86.2143 24.6399 90.4248 24.5367 90.4669C24.1671 90.6168 23.8947 90.9462 23.8071 91.3449C23.7195 91.7437 23.8287 92.1623 24.0975 92.462C31.4235 100.598 41.4255 95.0292 44.194 93.2273C49.9972 97.3524 56.7964 99.5282 63.91 99.5282C82.9828 99.5282 98.5 83.6707 98.5 64.1809C98.5 44.6912 82.9828 28.8337 63.91 28.8337ZM11.9271 45.5407C7.33833 40.768 4.84232 34.4559 4.90112 27.7662C4.95872 21.0764 7.56513 14.8077 12.2391 10.1179C21.8931 0.430022 37.4655 0.573675 46.9504 10.4349C56.3128 20.1724 56.398 35.5024 47.1424 45.3389C46.9768 45.516 46.8088 45.6881 46.6384 45.859C46.6072 45.89 46.5772 45.9234 46.5508 45.9568C45.124 47.7376 45.1072 49.3352 45.3436 50.3618C45.6952 51.88 46.7692 53.0615 47.8048 53.885C41.7412 55.8094 38.3739 52.3283 38.2227 52.1673C37.9923 51.9147 37.6755 51.7785 37.3491 51.7785C37.2267 51.7785 37.1043 51.7983 36.9843 51.8367C28.0791 54.7655 18.4755 52.3531 11.9271 45.5407ZM63.91 97.0514C57.0244 97.0514 50.4568 94.8632 44.9176 90.7245C44.4928 90.4063 43.9192 90.4087 43.498 90.732C43.3996 90.8087 34.1151 97.7771 27.1071 91.9827C30.4455 90.275 37.3455 85.9134 35.4459 79.7759C35.4279 79.7177 35.4063 79.662 35.3799 79.6063C33.6183 75.9085 32.2479 71.1766 31.8819 67.5134C31.8723 67.449 31.0767 61.1209 32.5359 55.3339C34.0467 55.1519 35.5563 54.8546 37.0503 54.4051C38.1063 55.2943 40.5711 56.9537 44.254 56.9537C46.1812 56.9537 48.4444 56.4992 51.0136 55.2398C51.4384 55.0317 51.706 54.5872 51.6988 54.1017C51.6916 53.6163 51.4096 53.1803 50.9788 52.9872C50.2372 52.6516 48.0376 51.3475 47.6764 49.7884C47.5168 49.0961 47.7412 48.3754 48.3592 47.5865C48.5308 47.4132 48.6988 47.2398 48.8644 47.0639C52.852 42.8262 55.2388 37.6572 56.0764 32.2974C58.624 31.6473 61.2568 31.3117 63.9088 31.3117C81.6592 31.3104 96.1 46.0559 96.1 64.1809C96.1 82.306 81.6592 97.0514 63.91 97.0514Z" fill="black"/>
<path fill-rule="evenodd" clip-rule="evenodd" d="M75.8392 58.2998H54.2392C53.5756 58.2998 53.0392 58.8534 53.0392 59.5382C53.0392 60.223 53.5756 60.7766 54.2392 60.7766H75.8392C76.5028 60.7766 77.0392 60.223 77.0392 59.5382C77.0392 58.8534 76.5028 58.2998 75.8392 58.2998ZM75.8392 70.1425H54.2392C53.5756 70.1425 53.0392 70.6961 53.0392 71.3809C53.0392 72.0657 53.5756 72.6193 54.2392 72.6193H75.8392C76.5028 72.6193 77.0392 72.0657 77.0392 71.3809C77.0392 70.6961 76.5028 70.1425 75.8392 70.1425Z" fill="black"/>
</svg>
